%TF.GenerationSoftware,KiCad,Pcbnew,(6.0.4-0)*%
%TF.CreationDate,2022-07-04T10:05:17-07:00*%
%TF.ProjectId,Joy,4a6f792e-6b69-4636-9164-5f7063625858,rev?*%
%TF.SameCoordinates,Original*%
%TF.FileFunction,Soldermask,Bot*%
%TF.FilePolarity,Negative*%
%FSLAX46Y46*%
G04 Gerber Fmt 4.6, Leading zero omitted, Abs format (unit mm)*
G04 Created by KiCad (PCBNEW (6.0.4-0)) date 2022-07-04 10:05:17*
%MOMM*%
%LPD*%
G01*
G04 APERTURE LIST*
%ADD10C,1.549400*%
%ADD11C,3.556000*%
%ADD12C,1.651000*%
%ADD13C,3.302000*%
G04 APERTURE END LIST*
D10*
%TO.C,J3*%
X69813529Y-71707345D03*
X72571969Y-71707345D03*
X75330409Y-71707345D03*
X78088849Y-71707345D03*
X80847289Y-71707345D03*
X83605729Y-71707345D03*
X86364169Y-71707345D03*
X89122609Y-71707345D03*
X91881049Y-71707345D03*
X94639489Y-71707345D03*
X97397929Y-71707345D03*
X100156369Y-71707345D03*
X102914809Y-71707345D03*
X71192749Y-74552145D03*
X73951189Y-74552145D03*
X76709629Y-74552145D03*
X79468069Y-74552145D03*
X82226509Y-74552145D03*
X84984949Y-74552145D03*
X87743389Y-74552145D03*
X90501829Y-74552145D03*
X93260269Y-74552145D03*
X96018709Y-74552145D03*
X98777149Y-74552145D03*
X101535589Y-74552145D03*
D11*
X109884569Y-73129745D03*
X62843769Y-73129745D03*
%TD*%
D12*
%TO.C,J1*%
X75895200Y-47193200D03*
X73126600Y-47193200D03*
X70358000Y-47193200D03*
X67589400Y-47193200D03*
X64820800Y-47193200D03*
X74510900Y-44348400D03*
X71742300Y-44348400D03*
X68973700Y-44348400D03*
X66205100Y-44348400D03*
D13*
X57734200Y-45770800D03*
X82981800Y-45770800D03*
%TD*%
D12*
%TO.C,J2*%
X107899200Y-47193200D03*
X105130600Y-47193200D03*
X102362000Y-47193200D03*
X99593400Y-47193200D03*
X96824800Y-47193200D03*
X106514900Y-44348400D03*
X103746300Y-44348400D03*
X100977700Y-44348400D03*
X98209100Y-44348400D03*
D13*
X89738200Y-45770800D03*
X114985800Y-45770800D03*
%TD*%
M02*
