M48
; DRILL file {KiCad (6.0.4-0)} date Sunday, May 01, 2022 at 11:46:46 PM
; FORMAT={-:-/ absolute / inch / decimal}
; #@! TF.CreationDate,2022-05-01T23:46:46-07:00
; #@! TF.GenerationSoftware,Kicad,Pcbnew,(6.0.4-0)
; #@! TF.FileFunction,Plated,1,2,PTH
FMAT,2
INCH
; #@! TA.AperFunction,Plated,PTH,ViaDrill
T1C0.0157
; #@! TA.AperFunction,Plated,PTH,ComponentDrill
T2C0.0410
; #@! TA.AperFunction,Plated,PTH,ComponentDrill
T3C0.0450
; #@! TA.AperFunction,Plated,PTH,ComponentDrill
T4C0.1200
; #@! TA.AperFunction,Plated,PTH,ComponentDrill
T5C0.1300
%
G90
G05
T1
X2.48Y-2.02
X2.48Y-2.12
X2.48Y-2.22
X2.48Y-2.32
X2.48Y-2.42
X2.48Y-2.52
X2.62Y-2.36
X2.72Y-2.6
X3.16Y-2.1
X3.2Y-2.66
X3.7398Y-2.22
X3.74Y-2.0202
X3.74Y-2.1202
X3.74Y-2.3202
X3.74Y-2.4202
X3.74Y-2.52
X3.86Y-2.34
X3.86Y-2.48
X4.1598Y-2.5998
X4.36Y-2.1
X4.38Y-2.3
X4.64Y-2.1
T2
X2.7486Y-2.8231
X2.8029Y-2.9351
X2.8572Y-2.8231
X2.9115Y-2.9351
X2.9658Y-2.8231
X3.0201Y-2.9351
X3.0744Y-2.8231
X3.1287Y-2.9351
X3.183Y-2.8231
X3.2373Y-2.9351
X3.2916Y-2.8231
X3.3459Y-2.9351
X3.4002Y-2.8231
X3.4545Y-2.9351
X3.5088Y-2.8231
X3.5631Y-2.9351
X3.6174Y-2.8231
X3.6717Y-2.9351
X3.726Y-2.8231
X3.7803Y-2.9351
X3.8346Y-2.8231
X3.8889Y-2.9351
X3.9432Y-2.8231
X3.9975Y-2.9351
X4.0518Y-2.8231
T3
X2.552Y-1.858
X2.6065Y-1.746
X2.661Y-1.858
X2.7155Y-1.746
X2.77Y-1.858
X2.8245Y-1.746
X2.879Y-1.858
X2.9335Y-1.746
X2.988Y-1.858
X3.812Y-1.858
X3.8665Y-1.746
X3.921Y-1.858
X3.9755Y-1.746
X4.03Y-1.858
X4.0845Y-1.746
X4.139Y-1.858
X4.1935Y-1.746
X4.248Y-1.858
T4
X2.4742Y-2.8791
X4.3262Y-2.8791
T5
X2.273Y-1.802
X3.267Y-1.802
X3.533Y-1.802
X4.527Y-1.802
T0
M30
